<svg xmlns="http://www.w3.org/2000/svg" xmlns:xlink="http://www.w3.org/1999/xlink" width="500" zoomAndPan="magnify" viewBox="0 0 375 374.999991" height="500" preserveAspectRatio="xMidYMid meet" version="1.0"><defs><g/><clipPath id="d0ae0ebcde"><path d="M 37.5 29.925781 L 335 29.925781 L 335 325 L 37.5 325 Z M 37.5 29.925781 " clip-rule="nonzero"/></clipPath><clipPath id="d58d27c157"><path d="M 40 35 L 337.5 35 L 337.5 329.925781 L 40 329.925781 Z M 40 35 " clip-rule="nonzero"/></clipPath><clipPath id="bf7e328d61"><path d="M 124.566406 91.714844 L 250.363281 91.714844 L 250.363281 255.074219 L 124.566406 255.074219 Z M 124.566406 91.714844 " clip-rule="nonzero"/></clipPath><clipPath id="64e6c7f220"><path d="M 106.921875 188.101562 L 268.085938 188.101562 L 268.085938 232.867188 L 106.921875 232.867188 Z M 106.921875 188.101562 " clip-rule="nonzero"/></clipPath><clipPath id="5dc9643745"><path d="M 106.921875 189.410156 L 268.085938 189.410156 L 268.085938 245 L 106.921875 245 Z M 106.921875 189.410156 " clip-rule="nonzero"/></clipPath><clipPath id="68fc3ea021"><path d="M 63.839844 199.585938 L 311.339844 199.585938 L 311.339844 297.085938 L 63.839844 297.085938 Z M 63.839844 199.585938 " clip-rule="nonzero"/></clipPath><clipPath id="c343a9d8ed"><path d="M 152.183594 299.714844 L 221.183594 299.714844 L 221.183594 310.964844 L 152.183594 310.964844 Z M 152.183594 299.714844 " clip-rule="nonzero"/></clipPath></defs><path fill="#358e9d" d="M 329.128906 179.5 C 329.066406 209.636719 319.019531 239.511719 301.246094 263.789062 C 284.3125 286.96875 260.488281 304.871094 233.507812 314.59375 C 205.496094 324.703125 174.460938 325.863281 145.804688 318.007812 C 118.054688 310.34375 92.875 294.308594 74.140625 272.417969 C 55.207031 250.265625 43.230469 222.578125 40.203125 193.601562 C 36.984375 162.628906 45.035156 130.753906 61.582031 104.484375 C 76.84375 80.207031 99.316406 60.761719 125.523438 49.105469 C 152.824219 37 183.734375 33.652344 213.03125 39.578125 C 241.234375 45.242188 267.441406 59.539062 287.597656 80.078125 C 307.878906 100.75 321.722656 127.34375 326.875 155.867188 C 328.355469 163.980469 329.128906 172.222656 329.128906 180.464844 C 329.128906 182.65625 329.195312 180.53125 329.128906 179.5 C 329.066406 149.945312 320.695312 121.097656 303.953125 96.628906 C 287.082031 72.03125 262.675781 52.84375 234.730469 42.476562 C 205.753906 31.722656 173.429688 30.5625 143.679688 39.253906 C 114.964844 47.625 89.207031 65.011719 70.597656 88.515625 C 51.921875 112.082031 41.042969 141.1875 39.558594 171.195312 C 38.144531 199.976562 44.132812 228.566406 58.554688 253.613281 C 73.300781 279.308594 95.96875 300.234375 122.820312 312.855469 C 150.894531 326.054688 183.089844 329.789062 213.480469 323.542969 C 242.78125 317.554688 269.824219 302.292969 290.238281 280.402344 C 310.777344 258.445312 324.105469 230.175781 327.96875 200.363281 C 328.808594 193.730469 329.195312 187.097656 329.195312 180.402344 C 329.195312 179.371094 329.128906 177.246094 329.128906 179.5 Z M 329.128906 179.5 " fill-opacity="1" fill-rule="nonzero"/><path fill="#358e9d" d="M 224.042969 319.359375 C 195.257812 326.054688 164.867188 323.996094 137.371094 313.113281 C 110.648438 302.488281 87.339844 283.941406 71.113281 260.183594 C 53.792969 234.875 44.195312 203.261719 46.0625 172.480469 C 47.867188 143.441406 58.683594 115.238281 76.585938 92.3125 C 113.351562 45.308594 177.292969 25.410156 234.214844 43.375 C 261.324219 51.941406 285.664062 68.488281 303.5 90.640625 C 322.496094 114.140625 333.699219 143.503906 335.375 173.640625 C 338.722656 233.394531 299.960938 290.640625 245.035156 312.726562 C 238.207031 315.429688 231.191406 317.621094 224.042969 319.359375 C 223.785156 319.421875 224.234375 322.511719 224.042969 322.578125 C 253.792969 315.429688 280.769531 299.140625 300.734375 275.894531 C 320.242188 253.164062 332.347656 224.445312 335.054688 194.632812 C 337.628906 166.171875 332.542969 137.195312 319.40625 111.761719 C 305.625 85.039062 283.410156 63.082031 256.625 49.363281 C 229.707031 35.519531 198.671875 30.496094 168.730469 35.132812 C 138.335938 39.835938 109.8125 54.257812 88.046875 76.085938 C 66.992188 97.273438 52.761719 124.894531 47.800781 154.386719 C 43.101562 182.332031 46.257812 211.824219 57.269531 237.96875 C 68.921875 265.65625 89.335938 289.289062 114.964844 305.0625 C 140.71875 320.839844 171.242188 328.375 201.375 326.054688 C 209.039062 325.476562 216.574219 324.253906 224.042969 322.511719 C 224.300781 322.511719 223.847656 319.421875 224.042969 319.359375 Z M 224.042969 319.359375 " fill-opacity="1" fill-rule="nonzero"/><g clip-path="url(#d0ae0ebcde)"><path fill="#358e9d" d="M 256.238281 306.15625 C 229.257812 320.644531 197.769531 326.121094 167.507812 321.933594 C 138.660156 317.941406 111.164062 305.386719 89.464844 285.9375 C 66.925781 265.847656 50.894531 238.675781 44.132812 209.25 C 37.5625 180.789062 39.753906 150.523438 50.25 123.285156 C 60.875 95.726562 79.871094 71.644531 104.273438 54.964844 C 130.351562 37.128906 162.742188 28.953125 194.164062 31.078125 C 223.207031 33.007812 251.410156 43.632812 274.460938 61.40625 C 298.480469 79.949219 316.316406 105.964844 325.203125 134.941406 C 333.765625 162.886719 333.636719 193.152344 325.074219 221.03125 C 316.445312 249.105469 299.316406 274.347656 276.328125 292.636719 C 269.824219 297.851562 262.804688 302.550781 255.464844 306.542969 C 253.46875 307.640625 255.335938 306.671875 256.238281 306.15625 C 282.574219 291.863281 304.273438 270.421875 318.054688 243.699219 C 331.898438 216.78125 337.242188 185.746094 332.992188 155.738281 C 328.613281 124.636719 314.0625 95.277344 291.976562 72.933594 C 270.660156 51.296875 242.652344 36.742188 212.773438 31.464844 C 182.765625 26.183594 151.472656 30.496094 123.976562 43.632812 C 97.640625 56.253906 74.976562 75.378906 59.585938 100.296875 C 43.746094 125.925781 36.019531 156.253906 37.757812 186.261719 C 39.558594 217.683594 51.730469 248.207031 71.949219 272.351562 C 91.460938 295.597656 118.117188 312.402344 147.480469 320.066406 C 176.972656 327.792969 208.652344 326.054688 237.113281 315.109375 C 243.425781 312.660156 249.542969 309.765625 255.53125 306.542969 C 256.367188 306.15625 258.296875 305.0625 256.238281 306.15625 Z M 256.238281 306.15625 " fill-opacity="1" fill-rule="nonzero"/></g><g clip-path="url(#d58d27c157)"><path fill="#358e9d" d="M 80.707031 279.820312 C 60.808594 257.347656 48.058594 229.273438 44.519531 199.460938 C 41.105469 170.484375 46.386719 140.734375 59.78125 114.785156 C 74.011719 87.097656 97.640625 63.273438 125.972656 50.136719 C 152.761719 37.710938 183.152344 33.78125 212.257812 38.675781 C 271.949219 48.785156 320.566406 96.242188 331.960938 155.738281 C 337.371094 184.070312 334.34375 213.820312 323.203125 240.414062 C 311.421875 268.683594 290.621094 292.828125 264.542969 308.925781 C 212.839844 340.734375 143.039062 333.71875 96.804688 295.40625 C 91.074219 290.574219 85.730469 285.359375 80.707031 279.820312 C 80.511719 279.628906 78.003906 281.558594 77.808594 281.367188 C 98.542969 304.484375 126.101562 320.710938 156.496094 327.277344 C 186.179688 333.71875 217.667969 330.691406 245.613281 318.714844 C 272.207031 307.253906 295.644531 288.773438 312 264.820312 C 329.195312 239.640625 338.144531 209.183594 337.4375 178.726562 C 336.726562 148.011719 326.296875 117.878906 307.6875 93.410156 C 288.820312 68.554688 262.226562 50.007812 232.21875 41.121094 C 203.242188 32.496094 171.628906 33.074219 142.972656 42.859375 C 115.734375 52.199219 90.878906 69.199219 72.851562 91.671875 C 53.792969 115.429688 42.523438 145.050781 40.847656 175.507812 C 39.175781 206.15625 47.222656 236.9375 63.773438 262.757812 C 67.957031 269.324219 72.722656 275.507812 77.875 281.304688 C 78.066406 281.558594 80.578125 279.628906 80.707031 279.820312 Z M 80.707031 279.820312 " fill-opacity="1" fill-rule="nonzero"/></g><path fill="#f4ece8" d="M 248.992188 222.710938 C 248.992188 222.710938 240.0625 218.929688 224.605469 219.167969 C 203.203125 219.496094 187.503906 234.578125 187.503906 234.578125 C 187.503906 234.578125 171.804688 219.496094 150.402344 219.167969 C 134.945312 218.929688 126.015625 222.710938 126.015625 222.710938 L 144.304688 175.21875 C 144.304688 175.21875 152.8125 176.066406 167.980469 177.34375 C 183.152344 178.621094 187.503906 188.117188 187.503906 188.117188 C 187.503906 188.117188 191.855469 178.621094 207.023438 177.34375 C 222.195312 176.066406 230.699219 175.21875 230.699219 175.21875 L 248.992188 222.710938 " fill-opacity="1" fill-rule="nonzero"/><path fill="#ded8d5" d="M 150.402344 219.167969 C 134.945312 218.929688 126.015625 222.710938 126.015625 222.710938 L 141.167969 183.367188 L 144.304688 175.21875 L 135.265625 183.367188 L 116.738281 230.132812 C 116.738281 230.132812 157.054688 218.839844 187.503906 234.578125 L 185.617188 232.941406 C 180.839844 229.027344 167.425781 219.429688 150.402344 219.167969 " fill-opacity="1" fill-rule="nonzero"/><path fill="#ded8d5" d="M 204.164062 223.875 C 197.203125 226.957031 192.003906 230.796875 189.390625 232.941406 L 187.503906 234.578125 C 193.503906 231.476562 199.886719 229.429688 206.269531 228.132812 C 205.324219 225.78125 204.40625 224.253906 204.164062 223.875 " fill-opacity="1" fill-rule="nonzero"/><path fill="#ded8d5" d="M 239.742188 183.367188 L 230.699219 175.21875 L 233.839844 183.367188 L 248.992188 222.710938 C 248.992188 222.710938 240.0625 218.929688 224.605469 219.167969 C 222.832031 219.195312 221.097656 219.328125 219.40625 219.542969 C 220.269531 221.34375 221.21875 223.625 222.042969 226.296875 C 241.84375 225.535156 258.269531 230.132812 258.269531 230.132812 L 239.742188 183.367188 " fill-opacity="1" fill-rule="nonzero"/><g clip-path="url(#bf7e328d61)"><path fill="#fdc128" d="M 126.019531 154.753906 C 126.917969 154.753906 127.8125 154.753906 128.710938 154.753906 C 130.265625 154.753906 130.269531 152.335938 128.710938 152.335938 C 127.8125 152.335938 126.917969 152.335938 126.019531 152.335938 C 124.464844 152.339844 124.460938 154.753906 126.019531 154.753906 Z M 134.988281 154.753906 C 141.839844 154.753906 148.691406 154.75 155.542969 154.75 C 157.097656 154.75 157.101562 152.332031 155.542969 152.332031 C 148.691406 152.335938 141.839844 152.335938 134.988281 152.335938 C 133.433594 152.335938 133.429688 154.753906 134.988281 154.753906 Z M 141.820312 111.804688 C 147.910156 117.890625 154 123.980469 160.089844 130.070312 C 160.960938 130.9375 161.828125 131.808594 162.699219 132.675781 C 163.800781 133.777344 165.507812 132.070312 164.40625 130.96875 C 158.316406 124.878906 152.226562 118.792969 146.136719 112.703125 C 145.269531 111.835938 144.398438 110.964844 143.527344 110.09375 C 142.425781 108.992188 140.71875 110.703125 141.820312 111.804688 Z M 248.992188 152.320312 C 243.4375 152.320312 237.882812 152.320312 232.328125 152.324219 C 230.769531 152.324219 230.769531 154.738281 232.328125 154.738281 C 237.882812 154.738281 243.4375 154.738281 248.992188 154.738281 C 250.550781 154.738281 250.550781 152.320312 248.992188 152.320312 Z M 227.15625 152.324219 C 224.59375 152.324219 222.03125 152.324219 219.46875 152.324219 C 217.914062 152.324219 217.914062 154.742188 219.46875 154.742188 C 222.03125 154.742188 224.59375 154.742188 227.15625 154.742188 C 228.710938 154.738281 228.714844 152.324219 227.15625 152.324219 Z M 231.472656 110.082031 C 229.417969 112.136719 227.367188 114.1875 225.316406 116.242188 C 224.214844 117.34375 225.921875 119.054688 227.023438 117.949219 C 229.078125 115.898438 231.128906 113.84375 233.179688 111.792969 C 234.28125 110.691406 232.574219 108.980469 231.472656 110.082031 Z M 222.03125 119.527344 C 218.222656 123.339844 214.410156 127.148438 210.597656 130.960938 C 209.5 132.0625 211.207031 133.773438 212.308594 132.671875 C 216.117188 128.859375 219.929688 125.046875 223.738281 121.234375 C 224.84375 120.132812 223.132812 118.425781 222.03125 119.527344 Z M 186.292969 92.882812 C 186.292969 97.433594 186.292969 101.984375 186.292969 106.539062 C 186.292969 108.09375 188.710938 108.09375 188.710938 106.539062 C 188.710938 101.984375 188.710938 97.433594 188.710938 92.882812 C 188.710938 91.324219 186.292969 91.324219 186.292969 92.882812 Z M 186.292969 110.949219 C 186.292969 111.972656 186.292969 112.996094 186.292969 114.015625 C 186.292969 115.574219 188.710938 115.574219 188.710938 114.015625 C 188.710938 112.996094 188.710938 111.972656 188.710938 110.949219 C 188.710938 109.394531 186.292969 109.390625 186.292969 110.949219 Z M 186.292969 119.097656 C 186.292969 120.199219 186.292969 121.300781 186.292969 122.402344 C 186.292969 123.960938 188.710938 123.960938 188.710938 122.402344 C 188.710938 121.300781 188.710938 120.199219 188.710938 119.097656 C 188.710938 117.542969 186.292969 117.539062 186.292969 119.097656 Z M 204.164062 223.871094 C 204.875 225.003906 211.789062 236.550781 206.972656 249.769531 L 215.921875 246.390625 L 221.535156 255.074219 C 227.121094 239.742188 222.625 226.265625 219.40625 219.539062 C 213.753906 220.253906 208.601562 221.90625 204.164062 223.871094 Z M 209.347656 163.707031 C 209.320312 164.691406 207.789062 164.691406 207.816406 163.707031 C 207.863281 162.136719 207.839844 160.566406 207.734375 159 C 207.671875 158.015625 209.203125 158.023438 209.265625 159 C 209.371094 160.566406 209.394531 162.136719 209.347656 163.707031 Z M 206.828125 152.992188 C 204.730469 144.511719 198.535156 135.800781 189.707031 133.328125 C 188.761719 133.0625 189.167969 131.585938 190.117188 131.851562 C 199.449219 134.464844 206.078125 143.585938 208.304688 152.585938 C 208.542969 153.542969 207.0625 153.949219 206.828125 152.992188 Z M 187.503906 125.722656 C 171.800781 125.722656 159.070312 138.453125 159.070312 154.15625 C 159.070312 159.480469 160.777344 165.039062 165.050781 170.511719 C 169.328125 175.980469 171.816406 179.363281 171.816406 183.441406 C 171.816406 187.519531 172.710938 189.609375 175.597656 189.609375 C 177.019531 189.609375 179.933594 189.609375 182.523438 189.609375 L 182.523438 167.003906 L 179.183594 167.003906 C 176.527344 167.003906 174.363281 164.839844 174.363281 162.183594 C 174.363281 159.527344 176.527344 157.367188 179.183594 157.367188 C 181.839844 157.367188 184.003906 159.527344 184.003906 162.183594 L 184.003906 165.523438 L 191.003906 165.523438 L 191.003906 162.183594 C 191.003906 159.527344 193.167969 157.367188 195.824219 157.367188 C 198.480469 157.367188 200.640625 159.527344 200.640625 162.183594 C 200.640625 164.839844 198.480469 167.003906 195.824219 167.003906 L 192.484375 167.003906 L 192.484375 189.609375 C 195.074219 189.609375 197.988281 189.609375 199.410156 189.609375 C 202.296875 189.609375 203.191406 187.519531 203.191406 183.441406 C 203.191406 179.363281 205.675781 175.980469 209.953125 170.511719 C 214.234375 165.039062 215.933594 159.480469 215.933594 154.15625 C 215.933594 138.453125 203.207031 125.722656 187.503906 125.722656 Z M 179.183594 158.84375 C 177.34375 158.84375 175.84375 160.34375 175.84375 162.183594 C 175.84375 164.027344 177.34375 165.523438 179.183594 165.523438 L 182.523438 165.523438 L 182.523438 162.183594 C 182.523438 160.34375 181.027344 158.84375 179.183594 158.84375 Z M 191.003906 167.003906 L 184.003906 167.003906 L 184.003906 189.609375 C 185.988281 189.609375 187.503906 189.609375 187.503906 189.609375 C 187.503906 189.609375 189.019531 189.609375 191.003906 189.609375 Z M 195.824219 165.523438 L 192.484375 165.523438 L 192.484375 162.183594 C 192.484375 160.34375 193.980469 158.84375 195.824219 158.84375 C 197.664062 158.84375 199.164062 160.34375 199.164062 162.183594 C 199.164062 164.027344 197.664062 165.523438 195.824219 165.523438 " fill-opacity="1" fill-rule="nonzero"/></g><g clip-path="url(#64e6c7f220)"><path fill="#feb46b" d="M 206.269531 228.136719 C 201.25 229.15625 196.230469 230.640625 191.398438 232.734375 L 207.75 232.734375 C 207.324219 230.988281 206.792969 229.4375 206.269531 228.136719 Z M 222.046875 226.300781 C 222.648438 228.253906 223.183594 230.40625 223.570312 232.734375 L 268.082031 232.734375 L 249.605469 188.136719 L 241.628906 188.136719 L 258.269531 230.132812 C 258.269531 230.132812 241.84375 225.539062 222.046875 226.300781 Z M 199.777344 202.429688 L 175.230469 205.109375 C 174.414062 205.199219 173.75 204.605469 173.75 203.792969 C 173.75 202.976562 174.414062 202.238281 175.230469 202.152344 L 199.777344 199.472656 C 200.59375 199.382812 201.257812 199.976562 201.257812 200.789062 C 201.257812 201.601562 200.59375 202.339844 199.777344 202.429688 Z M 201.257812 194.28125 C 201.257812 193.46875 200.59375 192.875 199.777344 192.964844 L 175.230469 195.644531 C 174.414062 195.730469 173.75 196.46875 173.75 197.28125 C 173.75 198.097656 174.414062 198.691406 175.230469 198.601562 L 199.777344 195.921875 C 200.59375 195.832031 201.257812 195.09375 201.257812 194.28125 Z M 183.609375 232.734375 L 106.921875 232.734375 L 125.402344 188.136719 L 133.375 188.136719 L 116.738281 230.132812 C 116.738281 230.132812 153.734375 219.777344 183.609375 232.734375 " fill-opacity="1" fill-rule="nonzero"/></g><g clip-path="url(#5dc9643745)"><path fill="#358e9d" d="M 223.570312 232.734375 C 223.9375 234.984375 224.167969 237.390625 224.179688 239.925781 L 268.082031 239.925781 L 268.082031 232.734375 Z M 207.75 232.734375 L 106.921875 232.734375 L 106.921875 239.925781 L 180.890625 239.925781 C 181.691406 242.832031 184.34375 244.96875 187.503906 244.96875 C 190.664062 244.96875 193.316406 242.832031 194.117188 239.925781 L 208.660156 239.925781 C 208.640625 237.300781 208.273438 234.871094 207.75 232.734375 Z M 178.125 204.792969 C 180.09375 207.90625 183.566406 209.988281 187.503906 209.988281 C 192.292969 209.988281 196.402344 206.90625 197.941406 202.628906 Z M 198.59375 193.09375 L 198.59375 189.578125 L 176.410156 189.578125 L 176.410156 195.515625 Z M 198.570312 199.601562 L 176.851562 201.972656 C 176.566406 200.996094 176.410156 199.964844 176.410156 198.894531 L 176.410156 198.472656 L 198.59375 196.050781 L 198.59375 198.894531 C 198.59375 199.132812 198.585938 199.367188 198.570312 199.601562 " fill-opacity="1" fill-rule="nonzero"/></g><g clip-path="url(#68fc3ea021)"><path fill="#358e9d" d="M 74.714844 217.683594 C 70.398438 212.542969 68.546875 206.777344 72.480469 199.578125 C 78.050781 205.597656 77.671875 211.640625 74.714844 217.683594 Z M 76.066406 227.289062 C 69.574219 225.535156 64.757812 221.847656 63.90625 213.695312 C 71.90625 215.453125 75.039062 220.644531 76.066406 227.289062 Z M 76.921875 227.113281 C 75.316406 220.59375 76.21875 214.601562 82.9375 209.910156 C 85.246094 217.757812 82.238281 223 76.921875 227.113281 Z M 80.105469 239.375 C 73.6875 238.421875 68.695312 235.4375 66.941406 227.765625 C 74.789062 228.542969 78.351562 233.128906 80.105469 239.375 Z M 80.882812 239.125 C 78.625 233.054688 78.800781 227.238281 84.695312 221.996094 C 87.804688 229.246094 85.523438 234.585938 80.882812 239.125 Z M 86.148438 250.785156 C 79.828125 250.632812 74.613281 248.351562 71.980469 241.132812 C 79.679688 240.929688 83.691406 244.945312 86.148438 250.785156 Z M 86.875 250.433594 C 83.941406 244.84375 83.414062 239.175781 88.480469 233.382812 C 92.367188 240.003906 90.8125 245.46875 86.875 250.433594 Z M 94.023438 261.167969 C 87.804688 261.84375 82.386719 260.265625 78.878906 253.496094 C 86.425781 252.316406 90.886719 255.75 94.023438 261.167969 Z M 94.699219 260.742188 C 91.113281 255.628906 89.859375 250.109375 94.097656 243.765625 C 98.761719 249.808594 97.933594 255.375 94.699219 260.742188 Z M 103.550781 270.320312 C 97.40625 271.800781 91.792969 270.921875 87.402344 264.601562 C 94.800781 262.449219 99.714844 265.304688 103.550781 270.320312 Z M 104.179688 269.796875 C 99.917969 265.128906 97.960938 259.789062 101.371094 252.894531 C 106.8125 258.308594 106.710938 264 104.179688 269.796875 Z M 300.28125 217.683594 C 297.320312 211.640625 296.945312 205.597656 302.488281 199.578125 C 306.425781 206.777344 304.59375 212.542969 300.28125 217.683594 Z M 298.925781 227.289062 C 299.953125 220.644531 303.089844 215.453125 311.085938 213.695312 C 310.210938 221.847656 305.421875 225.535156 298.925781 227.289062 Z M 298.074219 227.113281 C 292.757812 223 289.722656 217.757812 292.054688 209.910156 C 298.777344 214.601562 299.679688 220.59375 298.074219 227.113281 Z M 294.890625 239.375 C 296.617188 233.128906 300.207031 228.542969 308.054688 227.765625 C 306.296875 235.4375 301.285156 238.421875 294.890625 239.375 Z M 294.085938 239.125 C 289.472656 234.585938 287.191406 229.246094 290.273438 221.996094 C 296.167969 227.238281 296.367188 233.054688 294.085938 239.125 Z M 288.847656 250.785156 C 291.277344 244.945312 295.292969 240.929688 302.988281 241.132812 C 300.355469 248.351562 295.164062 250.632812 288.847656 250.785156 Z M 288.09375 250.433594 C 284.179688 245.46875 282.628906 240.003906 286.511719 233.382812 C 291.554688 239.175781 291.027344 244.84375 288.09375 250.433594 Z M 280.945312 261.167969 C 284.105469 255.75 288.570312 252.316406 296.117188 253.496094 C 292.605469 260.265625 287.191406 261.84375 280.945312 261.167969 Z M 280.269531 260.742188 C 277.058594 255.375 276.207031 249.808594 280.898438 243.765625 C 285.109375 250.109375 283.878906 255.628906 280.269531 260.742188 Z M 271.417969 270.320312 C 275.28125 265.304688 280.195312 262.449219 287.566406 264.601562 C 283.175781 270.921875 277.5625 271.800781 271.417969 270.320312 Z M 270.789062 269.796875 C 268.28125 264 268.15625 258.308594 273.625 252.894531 C 277.035156 259.789062 275.078125 265.128906 270.789062 269.796875 Z M 187.160156 277.867188 C 169.53125 277.867188 152.652344 274.355469 137.03125 267.964844 L 131.539062 284.941406 C 148.839844 292.011719 167.597656 295.871094 187.160156 295.871094 C 206.71875 295.871094 225.476562 292.011719 242.78125 284.941406 L 237.261719 267.964844 C 221.664062 274.355469 204.789062 277.867188 187.160156 277.867188 Z M 131.964844 276.765625 C 125.066406 273.78125 118.449219 270.195312 112.101562 266.109375 L 115.0625 278.894531 L 100.792969 279.648438 C 108.894531 285.167969 117.46875 289.882812 126.445312 293.742188 L 134.796875 297.203125 L 129.105469 285.617188 Z M 248.523438 292.664062 C 257.5 288.804688 266.101562 284.0625 274.199219 278.570312 L 259.929688 277.820312 L 262.863281 265.027344 C 256.546875 269.117188 249.902344 272.675781 243.003906 275.6875 L 245.886719 284.539062 L 238.867188 295.847656 L 248.523438 292.664062 " fill-opacity="1" fill-rule="evenodd"/></g><g clip-path="url(#c343a9d8ed)"><path fill="#ffc30f" d="M 163.472656 304.238281 L 160.933594 306.796875 C 160.878906 306.847656 160.855469 306.925781 160.867188 307 L 161.46875 310.609375 C 161.5 310.796875 161.304688 310.941406 161.140625 310.851562 L 158 309.148438 C 157.933594 309.113281 157.855469 309.113281 157.792969 309.148438 L 154.648438 310.851562 C 154.484375 310.941406 154.292969 310.796875 154.324219 310.609375 L 154.925781 307 C 154.9375 306.925781 154.914062 306.847656 154.859375 306.796875 L 152.316406 304.238281 C 152.183594 304.105469 152.257812 303.871094 152.441406 303.84375 L 155.953125 303.316406 C 156.027344 303.308594 156.089844 303.257812 156.125 303.191406 L 157.695312 299.90625 C 157.777344 299.734375 158.015625 299.734375 158.097656 299.90625 L 159.667969 303.191406 C 159.699219 303.257812 159.765625 303.308594 159.835938 303.316406 L 163.347656 303.84375 C 163.535156 303.871094 163.605469 304.105469 163.472656 304.238281 Z M 177.742188 303.84375 L 174.230469 303.316406 C 174.160156 303.308594 174.09375 303.257812 174.0625 303.191406 L 172.492188 299.90625 C 172.410156 299.734375 172.171875 299.734375 172.089844 299.90625 L 170.519531 303.191406 C 170.484375 303.257812 170.421875 303.308594 170.347656 303.316406 L 166.835938 303.84375 C 166.652344 303.871094 166.578125 304.105469 166.710938 304.238281 L 169.253906 306.796875 C 169.308594 306.847656 169.332031 306.925781 169.316406 307 L 168.71875 310.609375 C 168.6875 310.796875 168.878906 310.941406 169.042969 310.851562 L 172.183594 309.148438 C 172.25 309.113281 172.328125 309.113281 172.394531 309.148438 L 175.535156 310.851562 C 175.699219 310.941406 175.894531 310.796875 175.863281 310.609375 L 175.261719 307 C 175.25 306.925781 175.273438 306.847656 175.328125 306.796875 L 177.867188 304.238281 C 178 304.105469 177.925781 303.871094 177.742188 303.84375 Z M 192.136719 303.84375 L 188.625 303.316406 C 188.554688 303.308594 188.488281 303.257812 188.457031 303.191406 L 186.886719 299.90625 C 186.804688 299.734375 186.566406 299.734375 186.484375 299.90625 L 184.914062 303.191406 C 184.878906 303.257812 184.816406 303.308594 184.742188 303.316406 L 181.230469 303.84375 C 181.046875 303.871094 180.972656 304.105469 181.105469 304.238281 L 183.648438 306.796875 C 183.703125 306.847656 183.726562 306.925781 183.714844 307 L 183.113281 310.609375 C 183.082031 310.796875 183.273438 310.941406 183.4375 310.851562 L 186.582031 309.148438 C 186.644531 309.113281 186.722656 309.113281 186.789062 309.148438 L 189.929688 310.851562 C 190.09375 310.941406 190.289062 310.796875 190.257812 310.609375 L 189.65625 307 C 189.644531 306.925781 189.667969 306.847656 189.722656 306.796875 L 192.261719 304.238281 C 192.394531 304.105469 192.320312 303.871094 192.136719 303.84375 Z M 206.535156 303.84375 L 203.019531 303.316406 C 202.949219 303.308594 202.882812 303.257812 202.851562 303.191406 L 201.28125 299.90625 C 201.199219 299.734375 200.960938 299.734375 200.878906 299.90625 L 199.308594 303.191406 C 199.273438 303.257812 199.210938 303.308594 199.136719 303.316406 L 195.625 303.84375 C 195.441406 303.871094 195.367188 304.105469 195.503906 304.238281 L 198.042969 306.796875 C 198.097656 306.847656 198.121094 306.925781 198.109375 307 L 197.507812 310.609375 C 197.476562 310.796875 197.667969 310.941406 197.832031 310.851562 L 200.976562 309.148438 C 201.039062 309.113281 201.117188 309.113281 201.183594 309.148438 L 204.324219 310.851562 C 204.492188 310.941406 204.683594 310.796875 204.652344 310.609375 L 204.050781 307 C 204.039062 306.925781 204.0625 306.847656 204.117188 306.796875 L 206.65625 304.238281 C 206.789062 304.105469 206.71875 303.871094 206.53125 303.84375 Z M 221.050781 304.238281 C 221.1875 304.105469 221.113281 303.871094 220.929688 303.84375 L 217.417969 303.316406 C 217.34375 303.308594 217.28125 303.257812 217.246094 303.191406 L 215.675781 299.90625 C 215.59375 299.734375 215.355469 299.734375 215.273438 299.90625 L 213.703125 303.191406 C 213.667969 303.257812 213.605469 303.308594 213.535156 303.316406 L 210.019531 303.84375 C 209.835938 303.871094 209.761719 304.105469 209.898438 304.238281 L 212.4375 306.796875 C 212.492188 306.847656 212.515625 306.925781 212.503906 307 L 211.902344 310.609375 C 211.871094 310.796875 212.0625 310.941406 212.230469 310.851562 L 215.371094 309.148438 C 215.433594 309.113281 215.511719 309.113281 215.578125 309.148438 L 218.71875 310.851562 C 218.886719 310.941406 219.078125 310.796875 219.046875 310.609375 L 218.445312 307 C 218.433594 306.925781 218.457031 306.847656 218.511719 306.796875 Z M 221.050781 304.238281 " fill-opacity="1" fill-rule="nonzero"/></g><g fill="#ffffff" fill-opacity="1"><g transform="translate(167.84472, 289.233575)"><g><path d="M 4.140625 -0.859375 C 4.335938 -0.835938 4.554688 -0.84375 4.796875 -0.875 C 5.046875 -0.914062 5.265625 -1 5.453125 -1.125 C 5.640625 -1.25 5.742188 -1.4375 5.765625 -1.6875 C 5.796875 -1.925781 5.726562 -2.125 5.5625 -2.28125 C 5.394531 -2.445312 5.171875 -2.585938 4.890625 -2.703125 C 4.617188 -2.828125 4.3125 -2.945312 3.96875 -3.0625 C 3.632812 -3.175781 3.300781 -3.304688 2.96875 -3.453125 C 2.644531 -3.609375 2.347656 -3.789062 2.078125 -4 C 1.804688 -4.21875 1.597656 -4.484375 1.453125 -4.796875 C 1.304688 -5.109375 1.253906 -5.488281 1.296875 -5.9375 C 1.347656 -6.363281 1.484375 -6.722656 1.703125 -7.015625 C 1.929688 -7.316406 2.203125 -7.554688 2.515625 -7.734375 C 2.835938 -7.910156 3.191406 -8.03125 3.578125 -8.09375 C 3.960938 -8.15625 4.347656 -8.164062 4.734375 -8.125 C 5.304688 -8.0625 5.832031 -7.910156 6.3125 -7.671875 C 6.800781 -7.429688 7.179688 -7.097656 7.453125 -6.671875 C 7.722656 -6.242188 7.832031 -5.710938 7.78125 -5.078125 L 5.984375 -5.265625 C 5.992188 -5.703125 5.878906 -6.019531 5.640625 -6.21875 C 5.398438 -6.414062 5.050781 -6.539062 4.59375 -6.59375 C 4.425781 -6.613281 4.238281 -6.601562 4.03125 -6.5625 C 3.820312 -6.53125 3.644531 -6.457031 3.5 -6.34375 C 3.351562 -6.226562 3.265625 -6.066406 3.234375 -5.859375 C 3.210938 -5.648438 3.28125 -5.472656 3.4375 -5.328125 C 3.601562 -5.179688 3.828125 -5.050781 4.109375 -4.9375 C 4.390625 -4.820312 4.695312 -4.707031 5.03125 -4.59375 C 5.375 -4.476562 5.710938 -4.347656 6.046875 -4.203125 C 6.378906 -4.054688 6.675781 -3.875 6.9375 -3.65625 C 7.207031 -3.4375 7.414062 -3.171875 7.5625 -2.859375 C 7.707031 -2.546875 7.753906 -2.160156 7.703125 -1.703125 C 7.640625 -1.203125 7.488281 -0.789062 7.25 -0.46875 C 7.019531 -0.144531 6.726562 0.101562 6.375 0.28125 C 6.019531 0.457031 5.628906 0.570312 5.203125 0.625 C 4.773438 0.675781 4.34375 0.679688 3.90625 0.640625 C 3.300781 0.566406 2.734375 0.394531 2.203125 0.125 C 1.679688 -0.144531 1.28125 -0.515625 1 -0.984375 C 0.71875 -1.453125 0.613281 -2.035156 0.6875 -2.734375 L 2.5625 -2.53125 C 2.519531 -2.019531 2.660156 -1.625 2.984375 -1.34375 C 3.304688 -1.070312 3.691406 -0.910156 4.140625 -0.859375 Z M 4.140625 -0.859375 "/></g></g></g><g fill="#ffffff" fill-opacity="1"><g transform="translate(175.872384, 290.0998)"><g><path d="M 4.734375 -6.515625 L 4.34375 0.25 L 2.484375 0.140625 L 2.875 -6.625 L 0.453125 -6.765625 L 0.546875 -8.453125 L 7.234375 -8.0625 L 7.140625 -6.375 Z M 4.734375 -6.515625 "/></g></g></g><g fill="#ffffff" fill-opacity="1"><g transform="translate(182.917684, 290.521015)"><g><path d="M 5.734375 -8.4375 L 7.609375 -8.421875 L 7.578125 -3.25 C 7.578125 -2.125 7.265625 -1.273438 6.640625 -0.703125 C 6.023438 -0.128906 5.164062 0.148438 4.0625 0.140625 C 2.957031 0.140625 2.097656 -0.148438 1.484375 -0.734375 C 0.878906 -1.316406 0.578125 -2.171875 0.578125 -3.296875 L 0.609375 -8.46875 L 2.46875 -8.453125 L 2.4375 -3.5625 C 2.4375 -2.976562 2.550781 -2.523438 2.78125 -2.203125 C 3.007812 -1.890625 3.441406 -1.734375 4.078125 -1.734375 C 4.710938 -1.722656 5.140625 -1.875 5.359375 -2.1875 C 5.585938 -2.507812 5.703125 -2.960938 5.703125 -3.546875 Z M 5.734375 -8.4375 "/></g></g></g><g fill="#ffffff" fill-opacity="1"><g transform="translate(191.287474, 290.556996)"><g><path d="M 2.5 -1.84375 L 3.0625 -1.875 C 3.539062 -1.90625 3.953125 -2.039062 4.296875 -2.28125 C 4.648438 -2.519531 4.914062 -2.832031 5.09375 -3.21875 C 5.28125 -3.613281 5.363281 -4.046875 5.34375 -4.515625 C 5.320312 -4.984375 5.195312 -5.398438 4.96875 -5.765625 C 4.75 -6.128906 4.453125 -6.410156 4.078125 -6.609375 C 3.710938 -6.816406 3.289062 -6.90625 2.8125 -6.875 L 2.25 -6.84375 Z M 0.3125 -8.484375 L 2.828125 -8.625 C 3.421875 -8.65625 3.976562 -8.578125 4.5 -8.390625 C 5.019531 -8.203125 5.476562 -7.921875 5.875 -7.546875 C 6.28125 -7.179688 6.597656 -6.75 6.828125 -6.25 C 7.066406 -5.75 7.203125 -5.203125 7.234375 -4.609375 C 7.265625 -4.015625 7.1875 -3.453125 7 -2.921875 C 6.820312 -2.398438 6.554688 -1.9375 6.203125 -1.53125 C 5.847656 -1.132812 5.414062 -0.816406 4.90625 -0.578125 C 4.40625 -0.335938 3.859375 -0.203125 3.265625 -0.171875 L 0.75 -0.03125 Z M 0.3125 -8.484375 "/></g></g></g><g fill="#ffffff" fill-opacity="1"><g transform="translate(199.438277, 290.140144)"><g><path d="M 3.203125 -0.34375 L 2.765625 -4.359375 L -0.828125 -8.4375 L 1.390625 -8.671875 L 3.53125 -5.96875 L 5.03125 -9.0625 L 7.25 -9.3125 L 4.625 -4.5625 L 5.0625 -0.546875 Z M 3.203125 -0.34375 "/></g></g></g><g fill="#358e9d" fill-opacity="1"><g transform="translate(96.364831, 138.039943)"><g><path d="M -8.40625 -30.40625 L -12.140625 -24.875 L -14.25 -26.296875 C -14.46875 -26.453125 -14.710938 -26.503906 -14.984375 -26.453125 C -15.265625 -26.410156 -15.476562 -26.28125 -15.625 -26.0625 L -17.171875 -23.765625 C -17.316406 -23.546875 -17.351562 -23.304688 -17.28125 -23.046875 C -17.21875 -22.785156 -17.078125 -22.578125 -16.859375 -22.421875 L -12.078125 -19.203125 C -11.847656 -19.054688 -11.597656 -19 -11.328125 -19.03125 C -11.066406 -19.070312 -10.863281 -19.203125 -10.71875 -19.421875 L -8.1875 -23.171875 C -5.800781 -26.578125 -2.804688 -27.070312 0.796875 -24.65625 L 6.59375 -20.75 C 10.257812 -18.28125 10.929688 -15.320312 8.609375 -11.875 L 5.296875 -6.96875 C 2.984375 -3.53125 -0.00390625 -3.046875 -3.671875 -5.515625 L -6.46875 -7.390625 L -2.75 -12.921875 L 0.25 -10.90625 C 0.476562 -10.75 0.722656 -10.691406 0.984375 -10.734375 C 1.253906 -10.773438 1.460938 -10.90625 1.609375 -11.125 L 3.359375 -13.703125 C 3.503906 -13.929688 3.546875 -14.175781 3.484375 -14.4375 C 3.429688 -14.695312 3.289062 -14.90625 3.0625 -15.0625 L -2.21875 -18.625 C -2.445312 -18.769531 -2.691406 -18.820312 -2.953125 -18.78125 C -3.222656 -18.75 -3.429688 -18.617188 -3.578125 -18.390625 L -6.109375 -14.65625 C -8.421875 -11.21875 -11.410156 -10.726562 -15.078125 -13.1875 L -20.453125 -16.8125 C -24.117188 -19.28125 -24.796875 -22.234375 -22.484375 -25.671875 L -19.359375 -30.296875 C -17.046875 -33.734375 -14.054688 -34.21875 -10.390625 -31.75 Z M -8.40625 -30.40625 "/></g></g></g><g fill="#358e9d" fill-opacity="1"><g transform="translate(116.766359, 110.933822)"><g><path d="M -8.28125 -34.4375 L -2.65625 -38.671875 L 13.203125 -17.609375 C 15.859375 -14.078125 15.523438 -11.0625 12.203125 -8.5625 L 7.234375 -4.828125 C 3.910156 -2.316406 0.921875 -2.828125 -1.734375 -6.359375 L -17.59375 -27.421875 L -11.96875 -31.65625 L 4.265625 -10.109375 C 4.421875 -9.898438 4.632812 -9.769531 4.90625 -9.71875 C 5.175781 -9.675781 5.414062 -9.734375 5.625 -9.890625 L 7.796875 -11.53125 C 8.003906 -11.6875 8.117188 -11.898438 8.140625 -12.171875 C 8.171875 -12.441406 8.109375 -12.679688 7.953125 -12.890625 Z M -8.28125 -34.4375 "/></g></g></g><g fill="#358e9d" fill-opacity="1"><g transform="translate(145.342747, 91.787068)"><g><path d="M 4.328125 -35.578125 C 8.273438 -36.867188 10.929688 -35.414062 12.296875 -31.21875 L 14.3125 -25.0625 C 15.6875 -20.863281 14.398438 -18.117188 10.453125 -16.828125 L 5.0625 -15.0625 L 9.015625 -2.9375 L 2.328125 -0.765625 L -7.75 -31.640625 Z M 7.890625 -22.109375 L 5.375 -29.796875 C 5.289062 -30.046875 5.128906 -30.238281 4.890625 -30.375 C 4.660156 -30.507812 4.421875 -30.535156 4.171875 -30.453125 L 0.4375 -29.234375 L 3.5625 -19.640625 L 7.296875 -20.859375 C 7.546875 -20.941406 7.726562 -21.109375 7.84375 -21.359375 C 7.957031 -21.609375 7.972656 -21.859375 7.890625 -22.109375 Z M 7.890625 -22.109375 "/></g></g></g><g fill="#358e9d" fill-opacity="1"><g transform="translate(177.623019, 83.143265)"><g><path d="M 15.484375 -32.328125 C 19.640625 -32.285156 21.695312 -30.054688 21.65625 -25.640625 L 21.578125 -19.15625 C 21.535156 -14.738281 19.4375 -12.550781 15.28125 -12.59375 L 9.609375 -12.65625 L 9.484375 0.09375 L 2.453125 0.03125 L 2.78125 -32.453125 Z M 14.546875 -18.4375 L 14.625 -26.515625 C 14.625 -26.785156 14.535156 -27.019531 14.359375 -27.21875 C 14.179688 -27.414062 13.957031 -27.515625 13.6875 -27.515625 L 9.765625 -27.5625 L 9.65625 -17.484375 L 13.578125 -17.4375 C 13.847656 -17.4375 14.078125 -17.535156 14.265625 -17.734375 C 14.453125 -17.929688 14.546875 -18.164062 14.546875 -18.4375 Z M 14.546875 -18.4375 "/></g></g></g><g fill="#358e9d" fill-opacity="1"><g transform="translate(210.884668, 85.147634)"><g><path d="M 29.25 -17.515625 L 22.4375 1.53125 C 20.945312 5.6875 18.242188 7.0625 14.328125 5.65625 L 8.046875 3.40625 C 4.148438 2.007812 2.945312 -0.765625 4.4375 -4.921875 L 11.25 -23.96875 C 12.738281 -28.132812 15.429688 -29.519531 19.328125 -28.125 L 25.609375 -25.875 C 29.523438 -24.46875 30.738281 -21.679688 29.25 -17.515625 Z M 15.546875 -0.09375 L 22.921875 -20.6875 C 23.003906 -20.945312 22.992188 -21.203125 22.890625 -21.453125 C 22.785156 -21.703125 22.609375 -21.875 22.359375 -21.96875 L 19.390625 -23.03125 C 19.128906 -23.113281 18.875 -23.09375 18.625 -22.96875 C 18.382812 -22.84375 18.222656 -22.648438 18.140625 -22.390625 L 10.765625 -1.796875 C 10.671875 -1.546875 10.675781 -1.289062 10.78125 -1.03125 C 10.894531 -0.78125 11.082031 -0.613281 11.34375 -0.53125 L 14.3125 0.53125 C 14.5625 0.625 14.804688 0.601562 15.046875 0.46875 C 15.285156 0.34375 15.453125 0.15625 15.546875 -0.09375 Z M 15.546875 -0.09375 "/></g></g></g><g fill="#358e9d" fill-opacity="1"><g transform="translate(243.278735, 98.786681)"><g><path d="M 15.78125 -4.328125 L 7.40625 6 L 1.953125 1.578125 L 22.40625 -23.65625 L 32.125 -15.78125 C 35.34375 -13.164062 35.5625 -10.144531 32.78125 -6.71875 L 30.40625 -3.796875 C 28.71875 -1.710938 26.90625 -0.988281 24.96875 -1.625 C 25.882812 -0.09375 25.671875 1.503906 24.328125 3.171875 L 16.234375 13.15625 L 10.765625 8.71875 L 18.5 -0.828125 C 18.925781 -1.347656 18.894531 -1.804688 18.40625 -2.203125 Z M 24.859375 -15.53125 L 18.875 -8.15625 L 21.765625 -5.8125 C 21.972656 -5.644531 22.210938 -5.582031 22.484375 -5.625 C 22.753906 -5.664062 22.972656 -5.789062 23.140625 -6 L 27.84375 -11.8125 C 28.007812 -12.019531 28.085938 -12.257812 28.078125 -12.53125 C 28.066406 -12.800781 27.957031 -13.019531 27.75 -13.1875 Z M 24.859375 -15.53125 "/></g></g></g><g fill="#358e9d" fill-opacity="1"><g transform="translate(268.631378, 122.026157)"><g><path d="M 22.59375 -13.875 L 27.609375 -17.125 L 37.15625 -2.390625 L 32.140625 0.859375 L 29.28125 -3.546875 L 7.046875 10.875 L 3.21875 4.96875 L 25.453125 -9.453125 Z M 22.59375 -13.875 "/></g></g></g></svg>